<svg xmlns="http://www.w3.org/2000/svg">
<symbol id="group-2_1-svg" viewBox="0 0 188 198"> <path d="M110.386 48.8501L112.978 46.2605C112.262 45.5451 112.262 44.3861 112.978 43.671L120.819 35.8353C119.986 35.7213 119.144 35.6625 118.297 35.6625C113.35 35.6625 108.699 37.5867 105.202 41.0809C101.049 45.2316 99.1617 50.9985 99.9499 56.6884L107.794 48.8499C108.51 48.1352 109.671 48.1352 110.386 48.8501Z" fill="#98D9D5"/> <path d="M110.386 48.8501C111.102 49.5655 111.102 50.7248 110.386 51.4399L102.544 59.2756C103.378 59.3891 104.22 59.4482 105.067 59.4482C110.014 59.4482 114.664 57.5237 118.161 54.0295C122.315 49.879 124.202 44.1122 123.414 38.4222L115.569 46.2608C115.212 46.6183 114.742 46.797 114.273 46.797C113.805 46.797 113.335 46.6183 112.978 46.2608C112.978 46.2603 110.386 48.8501 110.386 48.8501Z" fill="#6DA8D6"/> <path d="M118.532 73.2985C115.736 72.1412 112.798 71.5542 109.799 71.5542C104.543 71.5542 99.4016 73.3869 95.3205 76.7143C95.2366 76.781 95.1543 76.8366 95.068 76.8857C95.0614 76.8896 95.0553 76.8938 95.0487 76.8974C94.9669 76.9428 94.8806 76.9807 94.7919 77.0132C94.778 77.0183 94.7643 77.0237 94.7504 77.0285C94.6654 77.0574 94.5779 77.0801 94.4877 77.0962C94.4716 77.0991 94.4555 77.1011 94.4393 77.1035C94.3497 77.1172 94.2588 77.1262 94.1654 77.1265C94.065 77.1262 93.9738 77.1172 93.8844 77.1035C93.8683 77.1008 93.8522 77.0989 93.836 77.0962C93.7459 77.0801 93.6584 77.0574 93.5734 77.0285C93.5594 77.0237 93.5457 77.0185 93.5318 77.0132C93.4429 76.9807 93.3569 76.9428 93.275 76.8974C93.2684 76.8938 93.2623 76.8896 93.2557 76.8857C93.1694 76.8366 93.0871 76.781 93.0104 76.7189C88.9219 73.3869 83.7801 71.5542 78.5246 71.5542C75.5259 71.5542 72.5874 72.1409 69.791 73.2985C58.483 77.9791 52.8805 90.6471 57.0364 102.139C58.2391 105.465 68.8219 126.183 74.2499 136.673C76.3027 140.633 80.3579 143.093 84.8325 143.093C86.3963 143.093 87.9291 142.787 89.3886 142.183C90.6981 141.641 91.8856 140.883 92.918 139.93C93.2691 139.606 93.7156 139.444 94.1618 139.444C94.6082 139.444 95.0544 139.606 95.4055 139.93C96.4379 140.883 97.6252 141.641 98.9349 142.183C100.394 142.787 101.927 143.093 103.491 143.093C107.966 143.093 112.022 140.632 114.075 136.67C119.502 126.182 130.084 105.465 131.287 102.14C135.443 90.6474 129.841 77.9788 118.532 73.2985ZM65.8484 90.9633C65.8379 90.9636 65.8277 90.965 65.8172 90.965C64.8051 90.965 63.9845 90.1454 63.9845 89.1338C63.9845 89.1233 63.986 89.1131 63.986 89.1026C64.0019 88.1567 64.7349 87.3864 65.6659 87.3102C65.7158 87.306 65.7658 87.3026 65.8169 87.3026C65.8631 87.3026 65.9083 87.3063 65.9535 87.3094C66.8564 87.3759 67.576 88.0952 67.6427 88.9973C67.6461 89.0427 67.6495 89.0877 67.6495 89.1338C67.6495 89.1848 67.6459 89.2349 67.642 89.2847C67.566 90.215 66.795 90.9474 65.8484 90.9633ZM74.9803 81.809C74.9803 81.8139 74.9795 81.8185 74.9795 81.8236C74.9722 82.7619 74.2592 83.5318 73.3444 83.6294C73.2796 83.6363 73.2141 83.6404 73.1477 83.6404C73.099 83.6404 73.0514 83.6368 73.004 83.6333C72.1248 83.565 71.4199 82.8779 71.3263 82.007C71.3192 81.9418 71.3153 81.8761 71.3153 81.8092C71.3153 81.7423 71.3194 81.6766 71.3263 81.6114C71.4245 80.698 72.1947 79.9861 73.1332 79.9785C73.1381 79.9785 73.1428 79.9778 73.1477 79.9778C74.1598 79.9778 74.9803 80.7974 74.9803 81.809ZM110.289 125.88C110.202 125.88 110.117 125.872 110.033 125.86C109.383 125.769 108.842 125.339 108.598 124.754C108.507 124.537 108.456 124.299 108.456 124.049C108.456 123.831 108.497 123.622 108.567 123.428C108.796 122.793 109.365 122.323 110.055 122.234C110.131 122.225 110.209 122.218 110.289 122.218C110.315 122.218 110.341 122.221 110.368 122.222C111.343 122.263 112.122 123.064 112.122 124.049C112.121 125.06 111.301 125.88 110.289 125.88Z" fill="#F2484B"/> <path d="M119.935 69.9148C116.692 68.5724 113.281 67.8917 109.799 67.8917C104.86 67.8917 100.009 69.2876 95.828 71.8686C95.0509 63.9116 91.5739 56.5321 85.8419 50.8048C85.1262 50.0899 83.9658 50.0896 83.2503 50.805C82.5346 51.5202 82.5346 52.6797 83.2503 53.3946C88.2341 58.3745 91.3104 64.7515 92.1156 71.6413C88.0215 69.2077 83.3151 67.8917 78.5246 67.8917C75.0421 67.8917 71.6317 68.5724 68.3885 69.9148C55.2669 75.3457 48.7664 90.0469 53.5894 103.383C55.173 107.763 70.3489 137.108 70.9947 138.356C73.6806 143.537 78.9827 146.756 84.8325 146.756C86.8801 146.756 88.8848 146.356 90.791 145.567C91.9983 145.067 93.1269 144.426 94.1615 143.654C95.1961 144.426 96.3247 145.067 97.5318 145.567C99.438 146.356 101.443 146.756 103.491 146.756C109.341 146.756 114.644 143.536 117.33 138.353C117.975 137.106 133.15 107.764 134.734 103.384C139.558 90.0474 133.057 75.3457 119.935 69.9148ZM131.287 102.14C130.084 105.465 119.502 126.182 114.075 136.67C112.022 140.632 107.966 143.094 103.491 143.094C101.927 143.094 100.394 142.787 98.9347 142.183C97.6252 141.641 96.4376 140.883 95.4053 139.93C95.0541 139.606 94.6079 139.444 94.1615 139.444C93.7153 139.444 93.2689 139.606 92.9178 139.93C91.8852 140.883 90.6979 141.642 89.3884 142.183C87.9294 142.787 86.3963 143.093 84.8325 143.093C80.3577 143.093 76.3025 140.633 74.2497 136.673C68.8219 126.183 58.2392 105.465 57.0362 102.139C52.8803 90.647 58.4828 77.979 69.7908 73.2984C72.5871 72.1411 75.5257 71.5541 78.5243 71.5541C83.7798 71.5541 88.9217 73.3868 93.0031 76.7142C93.0869 76.7809 93.1692 76.8365 93.2555 76.8856C93.2621 76.8895 93.2682 76.8937 93.2748 76.8973C93.3566 76.9428 93.4429 76.9806 93.5316 77.0131C93.5455 77.0182 93.5592 77.0236 93.5731 77.0285C93.6582 77.0573 93.7456 77.08 93.8358 77.0961C93.8519 77.099 93.8681 77.101 93.8842 77.1034C93.9739 77.1171 94.0648 77.1261 94.1581 77.1264C94.2585 77.1261 94.3497 77.1171 94.4391 77.1034C94.4552 77.1007 94.4714 77.0988 94.4875 77.0961C94.5776 77.08 94.6651 77.0573 94.7502 77.0285C94.7641 77.0236 94.7778 77.0184 94.7917 77.0131C94.8806 76.9806 94.9666 76.9428 95.0485 76.8973C95.0551 76.8937 95.0612 76.8895 95.0678 76.8856C95.1541 76.8365 95.2364 76.7809 95.3131 76.7189C99.4016 73.3868 104.543 71.5541 109.799 71.5541C112.798 71.5541 115.736 72.1408 118.532 73.2984C129.841 77.9787 135.443 90.6473 131.287 102.14Z" fill="#082947"/> <path d="M67.643 88.9972C67.5763 88.095 66.8567 87.3757 65.9538 87.3093C65.9086 87.3059 65.8634 87.3025 65.8172 87.3025C65.7661 87.3025 65.7161 87.3062 65.6662 87.3101C64.7352 87.3862 64.0022 88.1566 63.9863 89.1025C63.9861 89.113 63.9848 89.1232 63.9848 89.1337C63.9848 90.1453 64.8054 90.9649 65.8175 90.9649C65.828 90.9649 65.8382 90.9635 65.8487 90.9632C66.7956 90.9473 67.5663 90.2149 67.6425 89.2846C67.6467 89.2348 67.6501 89.1847 67.6501 89.1337C67.6498 89.0878 67.6462 89.0424 67.643 88.9972Z" fill="#082947"/> <path d="M73.1477 79.9777C73.1428 79.9777 73.1382 79.9784 73.133 79.9784C72.1945 79.9857 71.4243 80.6977 71.3261 81.6113C71.319 81.6765 71.3151 81.7422 71.3151 81.8091C71.3151 81.876 71.3192 81.9417 71.3261 82.0069C71.4196 82.8778 72.1246 83.5649 73.0038 83.6332C73.0514 83.6369 73.0991 83.6403 73.1474 83.6403C73.2139 83.6403 73.2796 83.6362 73.3441 83.6293C74.259 83.5319 74.9718 82.7618 74.9793 81.8235C74.9793 81.8184 74.9801 81.8138 74.9801 81.8089C74.9803 80.7973 74.1598 79.9777 73.1477 79.9777Z" fill="#082947"/> <path d="M110.367 122.222C110.341 122.221 110.315 122.218 110.289 122.218C110.209 122.218 110.131 122.224 110.054 122.234C109.364 122.322 108.796 122.793 108.567 123.428C108.497 123.622 108.456 123.83 108.456 124.049C108.456 124.299 108.507 124.537 108.597 124.754C108.842 125.339 109.383 125.769 110.033 125.86C110.117 125.872 110.202 125.88 110.289 125.88C111.301 125.88 112.121 125.06 112.121 124.049C112.121 123.064 111.343 122.263 110.367 122.222Z" fill="#082947"/> <path d="M97.1458 60.8618C97.1477 60.8682 97.1494 60.8748 97.1514 60.8811C97.1546 60.8911 97.1592 60.9002 97.1624 60.9099C97.18 60.9622 97.1995 61.0137 97.2218 61.0645C97.2296 61.0821 97.2376 61.0994 97.2459 61.1165C97.2674 61.1619 97.2911 61.2061 97.3166 61.2498C97.3266 61.2669 97.3364 61.2842 97.3469 61.3008C97.374 61.344 97.4035 61.3858 97.4346 61.4271C97.4453 61.4415 97.4551 61.4561 97.4661 61.47C97.5081 61.5228 97.5528 61.5738 97.6015 61.6224C97.6521 61.6729 97.7031 61.7176 97.7559 61.7599C97.7701 61.7711 97.7855 61.7813 97.8001 61.7923C97.8409 61.8228 97.8822 61.8521 97.925 61.8788C97.9421 61.8895 97.9599 61.8995 97.9775 61.9098C98.0205 61.9349 98.0645 61.9581 98.109 61.9794C98.1268 61.9879 98.1444 61.9962 98.1625 62.0043C98.2128 62.0265 98.2639 62.0458 98.3157 62.0631C98.3257 62.0665 98.3353 62.0712 98.3455 62.0746C98.3519 62.0765 98.3582 62.0782 98.3646 62.0802C98.3729 62.0826 98.3814 62.0853 98.39 62.0875C100.55 62.7656 102.796 63.1106 105.067 63.1106C110.993 63.1106 116.564 60.8052 120.753 56.6193C126.623 50.7538 128.717 42.1945 126.225 34.2724C126.223 34.2644 126.22 34.2565 126.218 34.2485C126.216 34.2421 126.214 34.2355 126.212 34.2292C126.209 34.2194 126.204 34.2104 126.201 34.2006C126.184 34.1481 126.164 34.0964 126.142 34.0456C126.134 34.0282 126.126 34.0112 126.118 33.9941C126.096 33.9487 126.072 33.9042 126.046 33.8603C126.036 33.8434 126.027 33.8261 126.016 33.8097C125.989 33.7663 125.959 33.724 125.928 33.6825C125.918 33.6686 125.908 33.6542 125.897 33.6405C125.855 33.5873 125.81 33.5358 125.761 33.4867C125.711 33.4376 125.66 33.3927 125.607 33.3502C125.593 33.3392 125.579 33.3297 125.565 33.3192C125.523 33.288 125.481 33.2584 125.438 33.2313C125.421 33.2206 125.404 33.211 125.386 33.201C125.343 33.1756 125.299 33.1522 125.254 33.1307C125.236 33.1224 125.219 33.1141 125.201 33.1061C125.151 33.0841 125.1 33.0648 125.048 33.0475C125.038 33.044 125.028 33.0392 125.018 33.0357C125.011 33.0335 125.005 33.0318 124.998 33.0301C124.99 33.0277 124.982 33.0252 124.974 33.023C122.814 32.3448 120.568 32 118.297 32C112.371 32 106.8 34.3051 102.611 38.4913C96.7406 44.357 94.6463 52.9161 97.1387 60.8379C97.1411 60.8462 97.1436 60.854 97.1458 60.8618ZM105.203 41.0808C108.7 37.5867 113.35 35.6624 118.297 35.6624C119.144 35.6624 119.986 35.7213 120.819 35.835L112.978 43.6707C112.262 44.3861 112.262 45.5451 112.977 46.2602C113.335 46.6179 113.804 46.7967 114.273 46.7967C114.743 46.7967 115.212 46.6179 115.569 46.2605L123.414 38.4219C124.202 44.1119 122.315 49.8787 118.161 54.0292C114.664 57.5237 110.014 59.4479 105.067 59.4479C104.22 59.4479 103.378 59.3888 102.544 59.2753L110.386 51.4396C111.102 50.7242 111.102 49.565 110.386 48.8498C109.671 48.1349 108.51 48.1349 107.795 48.8498L99.9502 56.6884C99.1619 50.9987 101.049 45.2316 105.203 41.0808Z" fill="#082947"/> </symbol>
<symbol id="group-2_2-svg" viewBox="0 0 100 100"> <symbol id="icon-1" viewBox="0 0 188 198"> <rect width="188" height="198" rx="8" fill="#E2E2E2"/> <path d="M135.929 129.098H52.8498V138.864H135.929V129.098Z" fill="#F2EBD9"/> <path d="M52.8498 91.9851V108.954C52.8498 109.964 53.6718 110.786 54.6824 110.786H134.096C135.107 110.786 135.929 109.964 135.929 108.954V91.9851H52.8498ZM120.243 105.658C119.231 105.658 118.41 104.838 118.41 103.827C118.41 102.816 119.231 101.996 120.243 101.996C121.255 101.996 122.075 102.816 122.075 103.827C122.075 104.838 121.255 105.658 120.243 105.658ZM127.573 100.775C126.561 100.775 125.741 99.955 125.741 98.9437C125.741 97.9324 126.561 97.1125 127.573 97.1125C128.585 97.1125 129.406 97.9324 129.406 98.9437C129.406 99.955 128.585 100.775 127.573 100.775Z" fill="#6DA8D6"/> <path d="M142.648 63.6625H46.1301C43.1168 63.6625 40.6653 66.1344 40.6653 69.1725C40.6653 72.1925 43.1168 74.6497 46.1301 74.6497C47.1422 74.6497 47.9628 75.4696 47.9628 76.4809V88.3228H140.816V78.3122H75.4521C74.44 78.3122 73.6195 77.4923 73.6195 76.4809C73.6195 75.4696 74.44 74.6497 75.4521 74.6497H142.648C145.662 74.6497 148.113 72.1927 148.113 69.1725C148.113 66.1344 145.662 63.6625 142.648 63.6625ZM68.1216 78.3122H53.4606C52.4485 78.3122 51.628 77.4923 51.628 76.4809C51.628 75.4696 52.4485 74.6497 53.4606 74.6497H68.1216C69.1337 74.6497 69.9543 75.4696 69.9543 76.4809C69.9543 77.4923 69.1337 78.3122 68.1216 78.3122Z" fill="#FFCC75"/> <path d="M142.648 60H46.1301C41.0958 60 37 64.1149 37 69.1724C37 73.5839 40.1382 77.2754 44.2975 78.127V90.1539C44.2975 91.1652 45.118 91.9851 46.1301 91.9851H49.1845V108.954C49.1845 111.983 51.6507 114.448 54.6824 114.448H134.096C137.128 114.448 139.594 111.983 139.594 108.954V91.9851H142.648C143.66 91.9851 144.481 91.1652 144.481 90.1539V78.127C148.64 77.2754 151.778 73.5839 151.778 69.1724C151.778 64.1149 147.683 60 142.648 60ZM142.648 74.6497H75.4521C74.44 74.6497 73.6195 75.4696 73.6195 76.4809C73.6195 77.4922 74.44 78.3121 75.4521 78.3121H140.816V88.3227H47.9628V76.4809C47.9628 75.4696 47.1422 74.6497 46.1301 74.6497C43.1168 74.6497 40.6652 72.1927 40.6652 69.1724C40.6652 66.1341 43.1168 63.6624 46.1301 63.6624H142.648C145.662 63.6624 148.113 66.1343 148.113 69.1724C148.113 72.1927 145.662 74.6497 142.648 74.6497ZM134.096 110.786H54.6824C53.6717 110.786 52.8498 109.964 52.8498 108.954V91.9851H135.929V108.954C135.929 109.964 135.106 110.786 134.096 110.786Z" fill="#082947"/> <path d="M68.1216 74.6497H53.4606C52.4485 74.6497 51.628 75.4696 51.628 76.4809C51.628 77.4922 52.4485 78.3121 53.4606 78.3121H68.1216C69.1337 78.3121 69.9543 77.4922 69.9543 76.4809C69.9543 75.4696 69.1337 74.6497 68.1216 74.6497Z" fill="#082947"/> <path d="M137.761 125.435H51.0171C50.005 125.435 49.1845 126.255 49.1845 127.267V140.695C49.1845 141.707 50.005 142.527 51.0171 142.527H137.761C138.773 142.527 139.594 141.707 139.594 140.695V127.267C139.594 126.255 138.773 125.435 137.761 125.435ZM135.929 138.864H52.8498V129.098H135.929V138.864Z" fill="#082947"/> <path d="M120.243 105.658C121.255 105.658 122.075 104.838 122.075 103.827C122.075 102.816 121.255 101.996 120.243 101.996C119.231 101.996 118.41 102.816 118.41 103.827C118.41 104.838 119.231 105.658 120.243 105.658Z" fill="#082947"/> <path d="M127.573 100.775C128.585 100.775 129.406 99.9551 129.406 98.9438C129.406 97.9324 128.585 97.1125 127.573 97.1125C126.561 97.1125 125.741 97.9324 125.741 98.9438C125.741 99.9551 126.561 100.775 127.573 100.775Z" fill="#082947"/> </symbol> </symbol>
<symbol id="group-2_3-svg" viewBox="0 0 188 198"> <rect width="188" height="198" rx="8" fill="#E2E2E2"/> <path d="M69.2323 117.351C70.9254 112.128 71.8645 106.706 72.0357 101.209H41.7251C42.1698 114.348 47.3957 127.353 57.4104 137.36C57.5319 137.482 57.656 137.599 57.7784 137.719C61.3598 133.528 64.336 128.909 66.6339 123.962C67.0564 123.052 68.1308 122.654 69.0437 123.062C69.5243 121.94 69.9698 120.8 70.383 119.646C69.4383 119.324 68.9235 118.303 69.2323 117.351Z" fill="#F2484B"/> <path d="M72.0345 97.5464C71.6135 84.202 66.6012 71.367 57.7774 61.037C57.655 61.1571 57.5309 61.2746 57.4094 61.3959C47.395 71.4026 42.1693 84.4079 41.7251 97.5464H72.0345ZM57.4253 74.773C58.0755 74.773 58.6441 75.1112 58.9694 75.6198C59.1519 75.9045 59.2589 76.2421 59.2589 76.6052C59.2589 77.6165 58.4384 78.4364 57.4263 78.4364C57.0466 78.4364 56.694 78.3209 56.4013 78.1234C55.9135 77.7948 55.5925 77.2376 55.5925 76.6042C55.5927 75.5932 56.4137 74.773 57.4253 74.773Z" fill="#F2484B"/> <path d="M121.776 75.6833C120.858 75.2575 120.459 74.1688 120.885 73.2515C123.342 67.9615 126.529 63.0272 130.365 58.5559C121.095 50.6075 109.531 46.1044 97.2529 45.6967V97.5465H115.141C115.313 91.6647 116.313 85.8632 118.124 80.2755C118.436 79.3135 119.469 78.7854 120.432 79.0979C120.442 79.1011 120.451 79.1053 120.46 79.1084C120.874 77.9545 121.319 76.815 121.8 75.6929C121.792 75.6892 121.784 75.687 121.776 75.6833Z" fill="#F2484B"/> <path d="M115.142 101.209H97.2529V153.058C109.531 152.652 121.094 148.148 130.365 140.197C120.92 129.187 115.565 115.472 115.142 101.209ZM108.34 132.642C108.278 132.648 108.216 132.651 108.152 132.651C107.963 132.651 107.78 132.622 107.607 132.569C107.095 132.41 106.68 132.032 106.469 131.544C106.373 131.322 106.319 131.077 106.319 130.82C106.319 130.631 106.348 130.448 106.402 130.276C106.634 129.53 107.33 128.989 108.152 128.989C109.164 128.989 109.985 129.809 109.985 130.82C109.985 131.768 109.264 132.548 108.34 132.642ZM115.483 139.976C115.312 139.976 115.146 139.951 114.989 139.907C114.466 139.76 114.038 139.389 113.816 138.903C113.711 138.671 113.65 138.415 113.65 138.145C113.65 137.939 113.686 137.742 113.748 137.558C113.993 136.835 114.677 136.313 115.483 136.313C116.495 136.313 117.316 137.133 117.316 138.145C117.316 139.093 116.594 139.873 115.67 139.966C115.608 139.973 115.546 139.976 115.483 139.976Z" fill="#F2484B"/> <path d="M60.4782 140.199C69.7469 148.145 81.3096 152.648 93.5877 153.058V101.209H75.7025C75.5299 107.09 74.5306 112.892 72.7192 118.479C72.4682 119.254 71.7494 119.746 70.9762 119.746C70.7891 119.746 70.599 119.718 70.4111 119.657C70.4015 119.654 70.3925 119.649 70.383 119.646C69.9698 120.8 69.5243 121.939 69.0437 123.062C69.0517 123.065 69.0598 123.068 69.0676 123.071C69.9856 123.497 70.3844 124.586 69.9583 125.503C67.5011 130.793 64.315 135.728 60.4782 140.199Z" fill="#FF6E1D"/> <path d="M75.702 97.5464H93.5876V45.6968C81.3108 46.1055 69.7479 50.6088 60.478 58.557C69.9236 69.5675 75.279 83.2835 75.702 97.5464Z" fill="#FF6E1D"/> <path d="M118.809 101.209C119.23 114.553 124.242 127.388 133.066 137.717C133.187 137.598 133.311 137.481 133.432 137.36C143.447 127.353 148.673 114.347 149.118 101.209H118.809V101.209Z" fill="#FF6E1D"/> <path d="M133.066 61.0356C129.484 65.2267 126.508 69.8457 124.21 74.7932C123.899 75.4609 123.238 75.854 122.546 75.854C122.296 75.854 122.042 75.8013 121.8 75.6929C121.319 76.8151 120.874 77.9548 120.46 79.1085C121.405 79.431 121.92 80.4518 121.611 81.4043C119.918 86.6272 118.979 92.049 118.808 97.5466H149.118C148.674 84.4077 143.449 71.402 133.434 61.3953C133.313 61.2737 133.188 61.156 133.066 61.0356Z" fill="#FF6E1D"/> <path d="M152.843 99.3996C152.843 99.3923 152.844 99.385 152.844 99.3777C152.844 99.3703 152.843 99.3633 152.843 99.3562C152.838 84.0377 146.866 69.6374 136.026 58.8051C125.181 47.969 110.763 42.0007 95.4256 42C80.9394 42.0027 67.2853 47.3217 56.6798 57.0291C56.6752 57.0333 56.67 57.0367 56.6652 57.0411C56.6576 57.0479 56.6512 57.0555 56.6439 57.0623C56.0252 57.6295 55.4151 58.2091 54.8176 58.8064C43.9746 69.641 38.0022 84.0461 38 99.3684C38.0024 114.71 43.9751 129.115 54.8186 139.95C65.6624 150.785 80.0819 156.753 95.421 156.755C109.898 156.755 123.551 151.437 134.158 141.731C134.164 141.725 134.172 141.72 134.178 141.714C134.188 141.705 134.197 141.694 134.207 141.685C134.822 141.121 135.429 140.544 136.024 139.95C146.864 129.118 152.837 114.718 152.843 99.3996ZM133.066 137.717C124.242 127.388 119.23 114.553 118.809 101.209H149.118C148.673 114.348 143.447 127.353 133.432 137.36C133.311 137.481 133.187 137.598 133.066 137.717ZM69.0676 123.072C69.0598 123.068 69.0515 123.065 69.0437 123.062C68.1308 122.654 67.0564 123.052 66.6339 123.962C64.3358 128.909 61.3598 133.528 57.7784 137.719C57.656 137.599 57.5319 137.481 57.4104 137.36C47.3955 127.353 42.1696 114.347 41.7251 101.209H72.036C71.8647 106.706 70.9257 112.128 69.2326 117.35C68.9237 118.303 69.4385 119.323 70.383 119.646C70.3925 119.649 70.4013 119.654 70.4111 119.657C70.599 119.718 70.7891 119.746 70.9762 119.746C71.7494 119.746 72.4682 119.253 72.7192 118.479C74.5306 112.892 75.5302 107.09 75.7025 101.209H93.5876V153.058C81.3098 152.648 69.7469 148.145 60.4782 140.199C64.315 135.727 67.5011 130.793 69.9583 125.503C70.3844 124.586 69.9856 123.498 69.0676 123.072ZM57.7774 61.0373C66.6014 71.3672 71.6137 84.2021 72.0345 97.5467H41.7249C42.1693 84.4081 47.395 71.4029 57.4092 61.3962C57.5309 61.2748 57.655 61.1571 57.7774 61.0373ZM93.5876 97.5465H75.702C75.279 83.2833 69.9236 69.5675 60.478 58.5568C69.7479 50.6086 81.3108 46.1053 93.5876 45.6966V97.5465ZM97.2529 101.209H115.142C115.565 115.472 120.92 129.187 130.365 140.198C121.094 148.148 109.531 152.652 97.2529 153.059V101.209ZM118.808 97.5465C118.979 92.0487 119.918 86.6268 121.611 81.4042C121.92 80.4517 121.405 79.4309 120.46 79.1084C120.451 79.1052 120.442 79.101 120.432 79.0979C119.469 78.7856 118.436 79.3135 118.124 80.2755C116.313 85.8631 115.313 91.6646 115.141 97.5465H97.2529V45.6966C109.531 46.1044 121.095 50.6074 130.365 58.5558C126.529 63.0269 123.342 67.9612 120.885 73.2514C120.459 74.1687 120.858 75.2575 121.776 75.6833C121.784 75.6869 121.792 75.6891 121.8 75.6928C122.042 75.8012 122.296 75.8539 122.546 75.8539C123.238 75.8539 123.899 75.4611 124.21 74.7931C126.508 69.8456 129.484 65.2266 133.066 61.0356C133.188 61.1559 133.313 61.2736 133.434 61.3952C143.449 71.4022 148.674 84.4076 149.118 97.5465H118.808Z" fill="#082947"/> <path d="M57.4263 74.774C56.4142 74.774 55.5937 75.5939 55.5937 76.6053C55.5937 77.2371 55.914 77.7943 56.4013 78.1235C56.6937 78.3212 57.0466 78.4365 57.4263 78.4365C58.4384 78.4365 59.2589 77.6166 59.2589 76.6053C59.2589 76.2422 59.1519 75.9045 58.9694 75.6198C58.6437 75.1117 58.0751 74.774 57.4263 74.774Z" fill="#082947"/> <path d="M108.153 128.989C107.33 128.989 106.634 129.53 106.402 130.276C106.349 130.448 106.32 130.63 106.32 130.82C106.32 131.077 106.374 131.322 106.47 131.544C106.68 132.031 107.095 132.409 107.608 132.569C107.78 132.622 107.963 132.651 108.153 132.651C108.216 132.651 108.278 132.648 108.34 132.642C109.264 132.548 109.985 131.768 109.985 130.82C109.985 129.809 109.165 128.989 108.153 128.989Z" fill="#082947"/> <path d="M117.316 138.145C117.316 137.134 116.495 136.314 115.483 136.314C114.677 136.314 113.993 136.835 113.748 137.558C113.686 137.743 113.65 137.94 113.65 138.145C113.65 138.415 113.711 138.672 113.816 138.903C114.038 139.389 114.466 139.761 114.989 139.907C115.146 139.951 115.312 139.976 115.483 139.976C115.546 139.976 115.609 139.973 115.67 139.967C116.594 139.873 117.316 139.093 117.316 138.145Z" fill="#082947"/> </symbol>
<symbol id="group-2_4-svg" viewBox="0 0 188 198"> <rect width="188" height="198" rx="8" fill="#E2E2E2"/> <path d="M104.819 75.8558C103.875 76.1019 102.894 76.2294 101.9 76.2294C99.8685 76.2294 97.9288 75.7052 96.2668 74.7556V140.276C96.2668 141.287 95.4462 142.107 94.4341 142.107C93.422 142.107 92.6015 141.287 92.6015 140.276V74.7556C90.9397 75.7049 88.9998 76.2294 86.9678 76.2294C85.974 76.2294 84.993 76.1022 84.0493 75.8558V154.926H92.6015V147.601C92.6015 146.589 93.422 145.769 94.4341 145.769C95.4462 145.769 96.2668 146.589 96.2668 147.601V154.926H104.819V75.8558Z" fill="#FFCC75"/> <path d="M92.0923 54.2091H96.7758L94.4342 48.5934L92.0923 54.2091Z" fill="#274B6D"/> <path d="M101.9 72.5668C102.718 72.5668 103.52 72.4398 104.278 72.1993L98.303 57.8712H90.5651L84.5905 72.1993C85.348 72.4398 86.1502 72.5666 86.9678 72.5666C89.4169 72.5666 91.6471 71.472 92.9336 69.6383C93.2767 69.1495 93.8368 68.8582 94.4342 68.8582C95.0316 68.8582 95.5917 69.1493 95.9347 69.6383C97.221 71.4722 99.4512 72.5668 101.9 72.5668Z" fill="#F2EBD9"/> <path d="M94.4342 145.77C93.4221 145.77 92.6015 146.589 92.6015 147.601V154.926C92.6015 155.937 93.4221 156.757 94.4342 156.757C95.4463 156.757 96.2668 155.937 96.2668 154.926V147.601C96.2668 146.589 95.4463 145.77 94.4342 145.77Z" fill="#082947"/> <path d="M133.299 84.8349L145.188 72.955C143.705 72.684 142.199 72.5438 140.682 72.5438C134.038 72.5438 127.793 75.128 123.097 79.8208C117.247 85.6668 114.745 93.8996 116.224 101.897L128.115 90.0145C128.831 89.2994 129.991 89.2992 130.707 90.0145L133.299 87.4247C132.583 86.7093 132.583 85.5501 133.299 84.8349Z" fill="#98D9D5"/> <path d="M134.595 87.9609C134.126 87.9609 133.657 87.7822 133.299 87.4245L130.707 90.014C131.423 90.7292 131.423 91.8887 130.707 92.6039L118.818 104.484C120.301 104.755 121.807 104.895 123.324 104.895C129.967 104.895 136.213 102.311 140.909 97.6182C146.759 91.7723 149.261 83.5391 147.782 75.5419L135.891 87.4245C135.533 87.7822 135.064 87.9609 134.595 87.9609Z" fill="#6DA8D6"/> <path d="M150.536 71.45C150.533 71.4415 150.531 71.4332 150.528 71.4249C150.526 71.4188 150.524 71.4124 150.522 71.4063C150.519 71.3968 150.515 71.3882 150.512 71.3787C150.494 71.3257 150.474 71.2735 150.451 71.222C150.444 71.2051 150.436 71.1885 150.428 71.1719C150.406 71.126 150.382 71.0808 150.356 71.0366C150.347 71.02 150.337 71.0034 150.327 70.9873C150.3 70.9431 150.269 70.9004 150.238 70.8582C150.228 70.845 150.219 70.8311 150.208 70.8181C150.166 70.7649 150.12 70.7131 150.071 70.6641C150.022 70.6147 149.97 70.5696 149.917 70.5271C149.904 70.5171 149.891 70.508 149.878 70.4985C149.835 70.4663 149.792 70.4358 149.747 70.4077C149.732 70.3977 149.715 70.3886 149.699 70.3794C149.654 70.3532 149.609 70.3288 149.563 70.3068C149.546 70.299 149.53 70.2915 149.513 70.2841C149.461 70.2612 149.408 70.2409 149.355 70.2231C149.346 70.2202 149.337 70.2158 149.328 70.2128C149.323 70.2111 149.317 70.2097 149.312 70.2077C149.302 70.2048 149.292 70.2019 149.282 70.1989C146.5 69.3241 143.607 68.8797 140.682 68.8797C133.06 68.8797 125.894 71.8451 120.505 77.2293C113.207 84.5224 110.447 95.0519 113.166 104.95L108.484 109.629V73.1306C108.484 73.1257 108.483 73.121 108.483 73.1164C108.483 73.0935 108.481 73.0705 108.48 73.0478C108.47 72.8344 108.425 72.6239 108.343 72.4262L101.217 55.3376C101.215 55.331 101.212 55.3244 101.209 55.3178L96.1256 43.1268C95.841 42.4444 95.1739 42 94.434 42C93.6941 42 93.027 42.4444 92.7424 43.1268L87.6589 55.3178C87.6562 55.3244 87.6535 55.331 87.6506 55.3376L80.5249 72.4262C80.4425 72.6235 80.3978 72.8334 80.388 73.0466C80.3868 73.07 80.3849 73.0932 80.3846 73.1169C80.3846 73.1215 80.3839 73.1262 80.3839 73.1306V131.604L75.7019 126.925C78.4208 117.027 75.6611 106.497 68.3626 99.2046C62.9742 93.8203 55.8086 90.855 48.1857 90.855C45.261 90.855 42.3679 91.2994 39.586 92.1742C39.5762 92.1771 39.5665 92.1798 39.5564 92.183C39.5508 92.1847 39.5452 92.1861 39.5396 92.1881C39.5305 92.191 39.5222 92.1952 39.5132 92.1984C39.4597 92.2162 39.4067 92.2364 39.3546 92.2594C39.338 92.2667 39.3219 92.2745 39.3055 92.2821C39.2591 92.3041 39.2136 92.3282 39.1687 92.3546C39.1525 92.3641 39.1364 92.3732 39.1205 92.3829C39.0758 92.411 39.0326 92.4413 38.99 92.4735C38.9771 92.4833 38.9637 92.4921 38.9509 92.5023C38.8977 92.5448 38.8459 92.59 38.7965 92.6393C38.7472 92.6886 38.7022 92.7404 38.6597 92.7934C38.6494 92.8063 38.6401 92.8202 38.6301 92.8334C38.5983 92.8757 38.568 92.9184 38.5404 92.9626C38.5302 92.9787 38.5209 92.9953 38.5114 93.0119C38.4855 93.0563 38.4615 93.1013 38.4395 93.1472C38.4315 93.1638 38.4236 93.1806 38.4161 93.1975C38.3933 93.249 38.3735 93.301 38.356 93.354C38.3528 93.3635 38.3484 93.372 38.3452 93.3816C38.3432 93.3877 38.3415 93.3938 38.3396 93.4001C38.3371 93.4084 38.3344 93.4167 38.332 93.4253C35.1203 103.619 37.8133 114.634 45.3671 122.182C50.7557 127.567 57.9213 130.532 65.544 130.532C68.1082 130.532 70.6483 130.191 73.1106 129.517L80.3832 136.784V154.925C80.3832 155.937 81.2037 156.757 82.2158 156.757C83.2279 156.757 84.0484 155.937 84.0484 154.925V75.8547C84.9921 76.1008 85.9734 76.2282 86.9669 76.2282C88.9989 76.2282 90.9386 75.704 92.6007 74.7545V140.275C92.6007 141.286 93.4212 142.106 94.4333 142.106C95.4454 142.106 96.2659 141.286 96.2659 140.275V74.7545C97.9277 75.7038 99.8676 76.2282 101.9 76.2282C102.893 76.2282 103.874 76.1008 104.818 75.8547V154.924C104.818 155.936 105.639 156.756 106.651 156.756C107.663 156.756 108.483 155.936 108.483 154.924V114.809L115.756 107.542C118.218 108.215 120.758 108.557 123.323 108.557C130.945 108.557 138.111 105.591 143.499 100.207C151.054 92.6591 153.747 81.644 150.536 71.45ZM47.9596 119.592C42.1092 113.746 39.6073 105.513 41.0863 97.5157L70.0506 126.458C68.5681 126.729 67.0619 126.869 65.545 126.869C58.9011 126.869 52.6558 124.284 47.9596 119.592ZM65.771 101.794C71.6213 107.64 74.1234 115.873 72.6444 123.87L43.6806 94.9286C45.1631 94.6575 46.6692 94.5174 48.1859 94.5174C54.8298 94.5174 61.0749 97.1016 65.771 101.794ZM95.9348 69.6376C95.5917 69.1488 95.0317 68.8575 94.4343 68.8575C93.8368 68.8575 93.2768 69.1485 92.9337 69.6376C91.6472 71.471 89.417 72.5658 86.9679 72.5658C86.1503 72.5658 85.3483 72.4389 84.5906 72.1986L90.5652 57.8705H98.303L104.278 72.1986C103.52 72.4391 102.718 72.5661 101.9 72.5661C99.4513 72.5658 97.2211 71.4713 95.9348 69.6376ZM92.0924 54.2081L94.434 48.5924L96.7756 54.2081H92.0924ZM140.909 97.6175C136.212 102.31 129.967 104.895 123.324 104.894C121.807 104.894 120.3 104.754 118.818 104.483L130.707 92.6032C131.423 91.888 131.423 90.7285 130.707 90.0136C129.991 89.2982 128.831 89.2984 128.115 90.0136L116.224 101.896C114.745 93.8987 117.247 85.6658 123.097 79.8199C127.793 75.1273 134.038 72.5429 140.682 72.5429C142.199 72.5429 143.705 72.683 145.188 72.954L133.299 84.834C132.583 85.5491 132.583 86.7084 133.299 87.4235C133.657 87.7812 134.126 87.96 134.595 87.96C135.064 87.96 135.533 87.7812 135.891 87.4235L147.782 75.5409C149.261 83.5384 146.759 91.7713 140.909 97.6175Z" fill="#082947"/> <path d="M72.6445 123.871C74.1236 115.874 71.6214 107.641 65.7712 101.795C61.075 97.1025 54.8299 94.5181 48.1861 94.5181C46.6694 94.5181 45.163 94.6582 43.6807 94.9292L72.6445 123.871Z" fill="#98D9D5"/> <path d="M41.0862 97.5166C39.6072 105.514 42.1091 113.747 47.9596 119.593C52.6557 124.285 58.9011 126.87 65.5449 126.87C67.0619 126.87 68.568 126.73 70.0505 126.459L41.0862 97.5166Z" fill="#6DA8D6"/> </symbol>
<symbol id="group-2_5-svg" viewBox="0 0 188 198"> <rect width="188" height="198" rx="8" fill="#E2E2E2"/> <path d="M131.075 125.087H116.414V131.191H131.075V125.087Z" fill="white"/> <path d="M46.9223 62.3251H141.922L145.587 58.6627H43.257L46.9223 62.3251Z" fill="#F2EBD9"/> <path d="M112.748 131.191V127.528H46.9223L43.257 131.191H112.748Z" fill="#F2EBD9"/> <path d="M141.922 127.528H134.74V131.191H145.587L141.922 127.528Z" fill="#F2EBD9"/> <path d="M44.3305 124.939V64.915L40.6653 61.2526V128.601L44.3305 124.939Z" fill="#FFCC75"/> <path d="M144.514 64.915V124.939L148.179 128.601V61.2526L144.514 64.915Z" fill="#FFCC75"/> <path d="M138.405 134.853H50.4392V138.516H138.405V134.853Z" fill="#FFCC75"/> <path d="M112.748 123.256C112.748 122.244 113.569 121.424 114.581 121.424H132.907C133.92 121.424 134.74 122.244 134.74 123.256V123.866H140.849V65.9875H47.9958V123.866H112.748V123.256ZM80.8359 103.917C81.4001 104.757 81.1758 105.895 80.3352 106.458C80.022 106.668 79.6669 106.769 79.3158 106.769C78.7254 106.769 78.1461 106.484 77.7925 105.958L72.592 98.2132L67.3913 105.958C67.0377 106.484 66.4583 106.769 65.868 106.769C65.5169 106.769 65.1618 106.668 64.8486 106.458C64.0083 105.895 63.7839 104.757 64.3479 103.917L70.3851 94.9268L64.3479 85.9365C63.7837 85.0968 64.008 83.959 64.8486 83.3955C65.6886 82.8318 66.8276 83.0561 67.3913 83.8958L72.592 91.6404L77.7928 83.8958C78.3567 83.0559 79.4956 82.832 80.3355 83.3955C81.1758 83.959 81.4001 85.0966 80.8361 85.9365L74.7987 94.9268L80.8359 103.917ZM101.753 96.5978H96.2549V102.091C96.2549 103.103 95.4346 103.923 94.4222 103.923C93.4099 103.923 92.5896 103.103 92.5896 102.091V96.5978H87.0917C86.0794 96.5978 85.2591 95.7779 85.2591 94.7666C85.2591 93.7553 86.0794 92.9354 87.0917 92.9354H92.5896V87.4418C92.5896 86.4304 93.4099 85.6106 94.4222 85.6106C95.4346 85.6106 96.2549 86.4304 96.2549 87.4418V92.9354H101.753C102.765 92.9354 103.585 93.7553 103.585 94.7666C103.585 95.7779 102.765 96.5978 101.753 96.5978ZM108.509 83.3955C109.349 82.832 110.488 83.0561 111.052 83.8958L116.294 91.7026L121.446 83.907C122.003 83.063 123.14 82.8308 123.985 83.388C124.829 83.9451 125.062 85.0812 124.504 85.925L118.139 95.5572V104.937C118.139 105.949 117.319 106.769 116.307 106.769C115.294 106.769 114.474 105.949 114.474 104.937V95.5648L108.009 85.9365C107.444 85.0966 107.669 83.959 108.509 83.3955Z" fill="#6DA8D6"/> <path d="M80.3354 83.3955C79.4953 82.8319 78.3564 83.0558 77.7927 83.8957L72.592 91.6403L67.3912 83.8957C66.8273 83.0561 65.6886 82.8317 64.8485 83.3955C64.0082 83.959 63.7839 85.0965 64.3478 85.9364L70.385 94.9267L64.3478 103.917C63.7836 104.757 64.008 105.894 64.8485 106.458C65.1618 106.668 65.5168 106.769 65.868 106.769C66.4583 106.769 67.0377 106.484 67.3912 105.958L72.592 98.2131L77.7927 105.958C78.1463 106.484 78.7256 106.769 79.316 106.769C79.6671 106.769 80.0222 106.668 80.3354 106.458C81.1757 105.894 81.4001 104.757 80.8361 103.917L74.7987 94.9267L80.8358 85.9364C81.4001 85.0965 81.1757 83.959 80.3354 83.3955Z" fill="white"/> <path d="M114.474 95.5648V104.937C114.474 105.949 115.294 106.769 116.307 106.769C117.319 106.769 118.139 105.949 118.139 104.937V95.5575L124.504 85.9253C125.062 85.0812 124.829 83.9454 123.985 83.3882C123.141 82.8311 122.004 83.0632 121.446 83.9073L116.294 91.7029L111.052 83.8961C110.488 83.0564 109.349 82.8323 108.509 83.3958C107.669 83.9593 107.444 85.0969 108.008 85.9368L114.474 95.5648Z" fill="white"/> <path d="M101.753 92.9353H96.2548V87.4417C96.2548 86.4304 95.4346 85.6105 94.4222 85.6105C93.4099 85.6105 92.5896 86.4304 92.5896 87.4417V92.9353H87.0917C86.0794 92.9353 85.2591 93.7552 85.2591 94.7665C85.2591 95.7778 86.0794 96.5977 87.0917 96.5977H92.5896V102.091C92.5896 103.103 93.4099 103.923 94.4222 103.923C95.4346 103.923 96.2548 103.103 96.2548 102.091V96.5977H101.753C102.765 96.5977 103.585 95.7778 103.585 94.7665C103.585 93.7552 102.765 92.9353 101.753 92.9353Z" fill="white"/> <path d="M151.48 134.114C151.499 134.089 151.518 134.065 151.535 134.039C151.553 134.012 151.569 133.984 151.586 133.956C151.6 133.933 151.615 133.91 151.628 133.885C151.643 133.857 151.656 133.828 151.669 133.799C151.681 133.774 151.694 133.749 151.705 133.723C151.716 133.695 151.726 133.666 151.736 133.637C151.746 133.61 151.756 133.582 151.765 133.554C151.774 133.525 151.78 133.495 151.788 133.466C151.795 133.437 151.803 133.409 151.809 133.38C151.816 133.346 151.82 133.311 151.825 133.276C151.828 133.252 151.833 133.228 151.835 133.203C151.841 133.142 151.844 133.081 151.844 133.02V56.8327C151.844 56.7716 151.841 56.7108 151.835 56.65C151.833 56.6254 151.828 56.6015 151.825 56.577C151.82 56.5421 151.816 56.5075 151.809 56.4728C151.803 56.4437 151.795 56.4156 151.788 56.3871C151.78 56.3575 151.774 56.328 151.765 56.2989C151.756 56.2706 151.746 56.2433 151.736 56.2157C151.726 56.1871 151.716 56.1581 151.705 56.13C151.694 56.1039 151.681 56.0789 151.669 56.0536C151.656 56.0247 151.643 55.9959 151.628 55.9676C151.615 55.9434 151.6 55.9205 151.586 55.8968C151.569 55.869 151.554 55.8409 151.535 55.8138C151.518 55.7879 151.499 55.7637 151.48 55.7391C151.463 55.7161 151.447 55.6924 151.429 55.6702C151.393 55.6268 151.355 55.5853 151.316 55.5452C151.259 55.4893 151.217 55.451 151.173 55.4148C151.152 55.3975 151.13 55.3824 151.108 55.366C151.082 55.3465 151.056 55.3262 151.029 55.3081C151.003 55.2908 150.976 55.2757 150.949 55.2595C150.925 55.2449 150.901 55.2295 150.875 55.2161C150.848 55.2014 150.819 55.189 150.791 55.1758C150.765 55.1636 150.74 55.1504 150.713 55.1394C150.685 55.1279 150.657 55.1189 150.629 55.1089C150.601 55.0986 150.573 55.0877 150.544 55.0789C150.515 55.0703 150.487 55.0642 150.459 55.0571C150.429 55.0498 150.4 55.0415 150.37 55.0354C150.337 55.0288 150.303 55.0249 150.27 55.0203C150.244 55.0166 150.219 55.0117 150.193 55.009C150.132 55.0032 150.071 55 150.011 55H38.8331C38.7725 55 38.7119 55.0032 38.6513 55.009C38.6252 55.0115 38.5998 55.0166 38.5739 55.0203C38.5406 55.0249 38.5072 55.0291 38.4742 55.0354C38.4441 55.0413 38.4148 55.0496 38.3852 55.0571C38.3569 55.0642 38.3285 55.0706 38.3004 55.0789C38.2714 55.0877 38.2433 55.0986 38.2147 55.1089C38.1868 55.1192 38.1587 55.1284 38.1311 55.1399C38.1045 55.1509 38.0788 55.1638 38.0529 55.1763C38.0248 55.1895 37.9965 55.2019 37.9688 55.2168C37.9437 55.2302 37.9197 55.2456 37.8951 55.2603C37.8682 55.2761 37.8413 55.2913 37.8152 55.3089C37.788 55.3269 37.7624 55.3472 37.7365 55.3667C37.7147 55.3831 37.6922 55.3982 37.671 55.4156C37.627 55.4517 37.5847 55.49 37.5442 55.5301C37.4889 55.586 37.4511 55.6275 37.4154 55.671C37.3971 55.6932 37.3809 55.7169 37.3638 55.7398C37.3453 55.7647 37.326 55.7889 37.3089 55.8145C37.2908 55.8416 37.2749 55.8697 37.2583 55.8975C37.2443 55.9207 37.2297 55.9437 37.2167 55.9679C37.2016 55.9962 37.1886 56.0252 37.1752 56.0543C37.1632 56.0794 37.1508 56.1043 37.14 56.13C37.1283 56.1583 37.1188 56.1874 37.1085 56.2162C37.0987 56.2438 37.088 56.2709 37.0794 56.2989C37.0706 56.328 37.064 56.3575 37.0567 56.3871C37.0496 56.4156 37.0415 56.4437 37.0357 56.4728C37.0288 56.5072 37.0247 56.5421 37.0198 56.577C37.0164 56.6015 37.0117 56.6254 37.0093 56.65C37.0032 56.7108 37 56.7719 37 56.8327V133.021C37 133.082 37.0032 133.143 37.0093 133.203C37.0117 133.228 37.0164 133.252 37.0198 133.276C37.0247 133.311 37.0288 133.346 37.0357 133.381C37.0413 133.41 37.0494 133.438 37.0567 133.466C37.064 133.496 37.0706 133.525 37.0794 133.555C37.088 133.583 37.0985 133.61 37.1085 133.637C37.1188 133.666 37.1283 133.695 37.14 133.723C37.1508 133.749 37.1632 133.774 37.1752 133.799C37.1886 133.828 37.2016 133.857 37.2167 133.886C37.2297 133.91 37.2446 133.933 37.2585 133.956C37.2751 133.984 37.2908 134.012 37.3091 134.039C37.3265 134.065 37.3455 134.089 37.3641 134.114C37.3812 134.137 37.3971 134.161 37.4156 134.183C37.4513 134.226 37.4892 134.268 37.5288 134.308C37.585 134.364 37.6272 134.402 37.6712 134.438C37.6922 134.456 37.7145 134.471 37.7362 134.487C37.7624 134.507 37.788 134.527 37.8154 134.545C37.8411 134.562 37.8677 134.577 37.8941 134.593C37.919 134.608 37.9437 134.623 37.9693 134.637C37.9962 134.652 38.0236 134.664 38.0509 134.676C38.0778 134.689 38.1042 134.703 38.1318 134.714C38.1585 134.725 38.1856 134.734 38.2127 134.744C38.242 134.754 38.2711 134.765 38.3012 134.775C38.3283 134.783 38.3561 134.789 38.3835 134.796C38.4141 134.803 38.4439 134.812 38.4749 134.818C38.5067 134.824 38.5389 134.828 38.5709 134.833C38.598 134.837 38.6247 134.842 38.6523 134.844C38.7124 134.85 38.7728 134.853 38.8331 134.853H46.774V140.347C46.774 141.358 47.5943 142.178 48.6066 142.178H140.238C141.25 142.178 142.07 141.358 142.07 140.347V134.853H150.012C150.072 134.853 150.133 134.85 150.193 134.844C150.22 134.842 150.247 134.837 150.274 134.833C150.306 134.828 150.338 134.824 150.37 134.818C150.401 134.812 150.431 134.803 150.461 134.796C150.489 134.789 150.517 134.783 150.544 134.775C150.574 134.766 150.603 134.754 150.632 134.744C150.659 134.734 150.686 134.725 150.713 134.714C150.741 134.703 150.767 134.689 150.794 134.676C150.822 134.664 150.849 134.652 150.876 134.637C150.901 134.623 150.926 134.608 150.951 134.593C150.977 134.577 151.004 134.562 151.03 134.545C151.057 134.527 151.083 134.507 151.109 134.487C151.13 134.471 151.153 134.456 151.174 134.438C151.218 134.402 151.26 134.364 151.301 134.324C151.356 134.268 151.394 134.226 151.429 134.183C151.447 134.161 151.463 134.137 151.48 134.114ZM50.4392 138.516V134.853H138.405V138.516H50.4392ZM134.74 131.191V127.528H141.922L145.587 131.191H134.74ZM116.414 131.191V125.087H131.075V131.191H116.414ZM47.9957 123.866V65.9875H140.849V123.866H134.74V123.256C134.74 122.244 133.92 121.424 132.907 121.424H114.581C113.569 121.424 112.748 122.244 112.748 123.256V123.866H47.9957ZM141.922 62.3251H46.9223L43.2571 58.6627H145.587L141.922 62.3251ZM44.3305 64.9149V124.939L40.6652 128.601V61.2525L44.3305 64.9149ZM144.514 124.939V64.9149L148.179 61.2525V128.601L144.514 124.939ZM46.9223 127.528H112.748V131.191H43.2571L46.9223 127.528Z" fill="#082947"/> </symbol>
<symbol id="group-3_1-svg" viewBox="0 0 626 660"> <rect width="626" height="660" rx="8" fill="#E2E2E2"/> <path d="M230.529 391.169C236.167 373.76 239.293 355.688 239.864 337.364H138.936C140.417 381.159 157.818 424.511 191.164 457.868C191.569 458.273 191.982 458.664 192.39 459.065C204.315 445.094 214.225 429.698 221.877 413.207C223.283 410.175 226.861 408.847 229.901 410.207C231.501 406.467 232.984 402.668 234.36 398.822C231.215 397.746 229.5 394.344 230.529 391.169Z" fill="#F2484B"/> <path d="M239.86 325.155C238.458 280.674 221.768 237.89 192.387 203.457C191.979 203.857 191.566 204.249 191.161 204.653C157.815 238.009 140.415 281.36 138.936 325.155H239.86ZM191.214 249.244C193.379 249.244 195.273 250.371 196.355 252.066C196.963 253.015 197.32 254.141 197.32 255.351C197.32 258.722 194.587 261.455 191.217 261.455C189.953 261.455 188.779 261.07 187.804 260.412C186.18 259.316 185.111 257.459 185.111 255.348C185.112 251.978 187.846 249.244 191.214 249.244Z" fill="#F2484B"/> <path d="M405.488 252.278C402.431 250.858 401.103 247.229 402.522 244.172C410.704 226.538 421.314 210.091 434.089 195.186C403.22 168.692 364.715 153.681 323.831 152.322V325.155H383.395C383.969 305.549 387.297 286.211 393.329 267.585C394.367 264.378 397.807 262.618 401.014 263.66C401.046 263.67 401.075 263.684 401.107 263.695C402.484 259.848 403.966 256.05 405.567 252.31C405.541 252.297 405.514 252.29 405.488 252.278Z" fill="#F2484B"/> <path d="M383.398 337.363H323.831V510.195C364.714 508.839 403.218 493.828 434.089 467.325C402.638 430.625 384.806 384.906 383.398 337.363ZM360.748 442.139C360.543 442.161 360.335 442.171 360.124 442.171C359.493 442.171 358.884 442.075 358.31 441.897C356.604 441.366 355.221 440.106 354.52 438.482C354.2 437.74 354.021 436.925 354.021 436.067C354.021 435.436 354.117 434.826 354.296 434.252C355.068 431.767 357.386 429.963 360.124 429.963C363.494 429.963 366.227 432.696 366.227 436.067C366.227 439.228 363.826 441.827 360.748 442.139ZM384.533 466.587C383.963 466.587 383.413 466.503 382.889 466.356C381.147 465.869 379.722 464.63 378.984 463.009C378.632 462.238 378.431 461.384 378.431 460.482C378.431 459.798 378.549 459.142 378.757 458.528C379.573 456.117 381.848 454.378 384.534 454.378C387.904 454.378 390.636 457.111 390.636 460.482C390.636 463.643 388.235 466.243 385.157 466.555C384.952 466.577 384.744 466.587 384.533 466.587Z" fill="#F2484B"/> <path d="M201.38 467.329C232.242 493.819 270.744 508.828 311.627 510.193V337.363H252.073C251.499 356.969 248.171 376.306 242.139 394.931C241.304 397.512 238.91 399.155 236.336 399.155C235.713 399.155 235.08 399.059 234.454 398.856C234.422 398.846 234.392 398.832 234.36 398.82C232.984 402.667 231.501 406.465 229.901 410.206C229.928 410.218 229.954 410.226 229.981 410.238C233.037 411.658 234.365 415.287 232.946 418.344C224.764 435.978 214.155 452.426 201.38 467.329Z" fill="#FF6E1D"/> <path d="M252.071 325.155H311.627V152.323C270.748 153.685 232.246 168.696 201.379 195.19C232.831 231.891 250.663 277.611 252.071 325.155Z" fill="#FF6E1D"/> <path d="M395.609 337.362C397.01 381.842 413.7 424.625 443.081 459.056C443.486 458.658 443.898 458.269 444.3 457.866C477.648 424.508 495.05 381.157 496.532 337.362H395.609V337.362Z" fill="#FF6E1D"/> <path d="M443.08 203.452C431.154 217.422 421.244 232.819 413.592 249.311C412.559 251.536 410.355 252.847 408.053 252.847C407.22 252.847 406.375 252.671 405.567 252.31C403.966 256.05 402.484 259.849 401.107 263.695C404.253 264.77 405.968 268.173 404.939 271.348C399.302 288.757 396.174 306.83 395.604 325.155H496.532C495.054 281.359 477.654 238.007 444.308 204.651C443.903 204.246 443.488 203.853 443.08 203.452Z" fill="#FF6E1D"/> <path d="M508.935 331.332C508.935 331.308 508.939 331.283 508.939 331.259C508.939 331.234 508.935 331.211 508.935 331.187C508.918 280.126 489.034 232.125 452.939 196.017C416.826 159.897 368.816 140.002 317.747 140C269.511 140.009 224.046 157.739 188.732 190.097C188.716 190.111 188.699 190.122 188.683 190.137C188.658 190.16 188.637 190.185 188.612 190.208C186.552 192.098 184.52 194.03 182.531 196.021C146.426 232.137 126.539 280.154 126.532 331.228C126.54 382.365 146.428 430.382 182.534 466.5C218.642 502.618 266.656 522.511 317.732 522.515C365.936 522.515 411.4 504.791 446.717 472.435C446.739 472.416 446.763 472.4 446.785 472.379C446.819 472.348 446.847 472.315 446.88 472.284C448.93 470.402 450.951 468.48 452.93 466.501C489.027 430.392 508.913 382.392 508.935 331.332ZM443.081 459.058C413.7 424.625 397.01 381.843 395.609 337.364H496.532C495.05 381.159 477.647 424.511 444.3 457.868C443.898 458.27 443.486 458.66 443.081 459.058ZM229.98 410.239C229.954 410.226 229.927 410.218 229.901 410.206C226.861 408.845 223.283 410.173 221.877 413.206C214.224 429.697 204.315 445.093 192.39 459.064C191.982 458.663 191.569 458.272 191.164 457.867C157.817 424.511 140.416 381.158 138.936 337.363H239.865C239.294 355.688 236.167 373.76 230.53 391.168C229.501 394.343 231.216 397.745 234.36 398.82C234.392 398.831 234.421 398.845 234.454 398.856C235.08 399.058 235.713 399.154 236.336 399.154C238.91 399.154 241.304 397.511 242.139 394.93C248.171 376.306 251.499 356.967 252.073 337.363H311.627V510.193C270.744 508.828 232.242 493.818 201.38 467.328C214.155 452.425 224.764 435.977 232.946 418.345C234.365 415.288 233.037 411.659 229.98 410.239ZM192.387 203.458C221.768 237.891 238.459 280.674 239.86 325.156H138.935C140.415 281.36 157.815 238.01 191.16 204.654C191.566 204.249 191.979 203.857 192.387 203.458ZM311.627 325.155H252.071C250.663 277.611 232.831 231.892 201.379 195.189C232.246 168.695 270.748 153.684 311.627 152.322V325.155ZM323.831 337.363H383.398C384.807 384.905 402.638 430.624 434.089 467.325C403.218 493.827 364.714 508.84 323.831 510.195V337.363ZM395.604 325.155C396.174 306.829 399.302 288.756 404.939 271.347C405.968 268.173 404.253 264.77 401.107 263.695C401.075 263.684 401.046 263.67 401.014 263.66C397.807 262.619 394.367 264.378 393.329 267.585C387.296 286.21 383.969 305.549 383.395 325.155H323.831V152.322C364.715 153.681 403.221 168.691 434.089 195.186C421.314 210.09 410.704 226.537 402.522 244.171C401.103 247.229 402.431 250.858 405.488 252.278C405.514 252.29 405.541 252.297 405.567 252.309C406.375 252.671 407.22 252.846 408.053 252.846C410.355 252.846 412.559 251.537 413.592 249.31C421.244 232.819 431.155 217.422 443.08 203.452C443.488 203.853 443.903 204.245 444.308 204.651C477.654 238.007 495.054 281.359 496.532 325.155H395.604Z" fill="#082947"/> <path d="M191.217 249.247C187.847 249.247 185.115 251.98 185.115 255.351C185.115 257.458 186.182 259.315 187.804 260.412C188.778 261.071 189.953 261.455 191.217 261.455C194.587 261.455 197.32 258.722 197.32 255.351C197.32 254.141 196.963 253.016 196.355 252.067C195.271 250.373 193.378 249.247 191.217 249.247Z" fill="#082947"/> <path d="M360.125 429.963C357.387 429.963 355.07 431.768 354.297 434.252C354.119 434.825 354.023 435.435 354.023 436.067C354.023 436.925 354.202 437.741 354.521 438.481C355.221 440.105 356.605 441.365 358.311 441.896C358.884 442.075 359.494 442.171 360.125 442.171C360.336 442.171 360.544 442.16 360.749 442.139C363.826 441.826 366.227 439.227 366.227 436.067C366.227 432.696 363.495 429.963 360.125 429.963Z" fill="#082947"/> <path d="M390.636 460.483C390.636 457.112 387.904 454.379 384.534 454.379C381.848 454.379 379.573 456.117 378.757 458.528C378.55 459.143 378.432 459.799 378.432 460.483C378.432 461.385 378.633 462.239 378.984 463.009C379.722 464.631 381.147 465.869 382.889 466.357C383.413 466.503 383.963 466.588 384.534 466.588C384.745 466.588 384.952 466.577 385.157 466.556C388.235 466.244 390.636 463.644 390.636 460.483Z" fill="#082947"/> </symbol>
</svg>